# xmcd
#
# Track frame offsets:
#	150
#	11972
#	22444
#	35755
#	46357
#	58857
#	71833
#	84615
#	96018
#	109288
#	121545
#	134846
#	147633
#	158721
#	172205
#	184569
#	197205
#	209918
#	220734
#	232031
#	243220
#	255535
#	265423
#	276900
#
# Disc length: 3826 seconds
#
# Revision: 0
# Processed by: cddbd v1.5.2PL0 Copyright (c) Steve Scherf et al.
# Submitted via: audiograbber 1.83.01
#
DISCID=860ef018
DTITLE=Locklin, Hank - Let me be the One
DYEAR=2006
DGENRE=Country
TTITLE0=The Same Sweet Girl
TTITLE1=You've Been Talking In Your Sleep
TTITLE2=Knocking At Your Door
TTITLE3=Born To Ramble
TTITLE4=Send Me The Pillow You Dream On
TTITLE5=Crazy Over You
TTITLE6=Midnight Tears
TTITLE7=It's So Hard To Say I Love You
TTITLE8=You Burned A Hole In My Heart
TTITLE9=Pinball Millionaire
TTITLE10=Come Share The Sunshine With Me
TTITLE11=No One Is Sweeter Than You
TTITLE12=To Whom It My Concern
TTITLE13=I Could Love You Darling
TTITLE14=Rio Grande Waltz
TTITLE15=Who Do You Think You're Fooling
TTITLE16=I Always Lose
TTITLE17=Stumpy Joe
TTITLE18=Down Texas Way
TTITLE19=Let Me Be The One
TTITLE20=The Red Rose
TTITLE21=Your Heart Is An Island
TTITLE22=Who Am I To Cast The First Stone
TTITLE23=I'll Always Be Standing By
EXTD=
EXTT0=
EXTT1=
EXTT2=
EXTT3=
EXTT4=
EXTT5=
EXTT6=
EXTT7=
EXTT8=
EXTT9=
EXTT10=
EXTT11=
EXTT12=
EXTT13=
EXTT14=
EXTT15=
EXTT16=
EXTT17=
EXTT18=
EXTT19=
EXTT20=
EXTT21=
EXTT22=
EXTT23=
PLAYORDER=
